# xmcd
# 
# Track frame offsets:
#     150
#     11247
#     23672
#     38885
#     53520
#     70187
#     85262
#     102575
#     117210
#     131282
# 
# Disc length: 1915
# 
# Revision: 4
# Processed by: cddbd v1.5.2PL0 Copyright (c) Steve Scherf et al.
# Submitted via: fre:ac v1.0.31
# 
DISCID=7a07790a
DTITLE=Sawyer Brown - Shakin'
DYEAR=1985
DGENRE=Country
TTITLE0=When Your Heart Goes (Woo, Woo, Woo)
TTITLE1=The Secretary's Song
TTITLE2=Heart Don't Fall Now
TTITLE3=Shakin'
TTITLE4=Sharin' The Moonshine
TTITLE5=Betty's Bein' Bad
TTITLE6=I Beleive
TTITLE7=Lonely Girls
TTITLE8=That's A No No
TTITLE9=Billy Does Your Bulldog Bite
EXTD=
EXTT0=
EXTT1=
EXTT2=
EXTT3=
EXTT4=
EXTT5=
EXTT6=
EXTT7=
EXTT8=
EXTT9=
PLAYORDER=
